<svg width="32" height="32" viewBox="0 0 32 32" fill="none" xmlns="http://www.w3.org/2000/svg">
<path fill-rule="evenodd" clip-rule="evenodd" d="M5.33328 16.0001C5.33347 13.9473 5.92596 11.9383 7.03966 10.2139C8.15336 8.48958 9.74096 7.12321 11.612 6.27877C13.4829 5.43433 15.5579 5.14769 17.5877 5.45325C19.6176 5.7588 21.5162 6.64358 23.0557 8.0014C24.5951 9.35923 25.7101 11.1324 26.2668 13.1082C26.8236 15.084 26.7983 17.1785 26.1942 19.1403C25.5901 21.1021 24.4327 22.848 22.861 24.1683C21.2892 25.4887 19.3699 26.3275 17.3333 26.5841V18.6667H19.9999C20.3536 18.6667 20.6927 18.5263 20.9428 18.2762C21.1928 18.0262 21.3333 17.687 21.3333 17.3334C21.3333 16.9798 21.1928 16.6407 20.9428 16.3906C20.6927 16.1406 20.3536 16.0001 19.9999 16.0001H17.3333V13.3334C17.3333 12.9798 17.4738 12.6407 17.7238 12.3906C17.9738 12.1406 18.313 12.0001 18.6666 12.0001H19.3333C19.6869 12.0001 20.026 11.8596 20.2761 11.6096C20.5261 11.3595 20.6666 11.0204 20.6666 10.6667C20.6666 10.3131 20.5261 9.97399 20.2761 9.72394C20.026 9.47389 19.6869 9.33341 19.3333 9.33341H18.6666C17.6057 9.33341 16.5883 9.75484 15.8382 10.505C15.088 11.2551 14.6666 12.2725 14.6666 13.3334V16.0001H11.9999C11.6463 16.0001 11.3072 16.1406 11.0571 16.3906C10.8071 16.6407 10.6666 16.9798 10.6666 17.3334C10.6666 17.687 10.8071 18.0262 11.0571 18.2762C11.3072 18.5263 11.6463 18.6667 11.9999 18.6667H14.6666V26.5841C12.0889 26.259 9.71837 25.0044 7.99995 23.0557C6.28153 21.1071 5.33332 18.5982 5.33328 16.0001ZM15.9999 29.3334C23.3639 29.3334 29.3333 23.3641 29.3333 16.0001C29.3333 8.63608 23.3639 2.66675 15.9999 2.66675C8.63594 2.66675 2.66661 8.63608 2.66661 16.0001C2.66661 23.3641 8.63594 29.3334 15.9999 29.3334Z" fill="white"/>
</svg>
