<svg width="32" height="26" viewBox="0 0 32 26" fill="none" xmlns="http://www.w3.org/2000/svg">
<path d="M25.9738 24.8327V22.693M6.0033 24.8327V22.693" stroke="white" stroke-width="2.1397" stroke-linecap="round"/>
<path d="M28.827 13.4208C28.827 8.04156 28.827 5.35125 27.1552 3.68085C25.4848 2.00903 22.7945 2.00903 17.4153 2.00903H14.5623C9.18312 2.00903 6.4928 2.00903 4.82241 3.68085C3.15059 5.35125 3.15059 8.04156 3.15059 13.4208M1.72412 17.7002C1.72412 16.3707 1.72412 15.706 1.94094 15.1825C2.08432 14.8361 2.29456 14.5214 2.55964 14.2563C2.82471 13.9912 3.13943 13.781 3.48581 13.6376C4.00932 13.4208 4.67406 13.4208 6.00352 13.4208H25.9741C27.3035 13.4208 27.9683 13.4208 28.4918 13.6376C28.8381 13.781 29.1529 13.9912 29.4179 14.2563C29.683 14.5214 29.8933 14.8361 30.0366 15.1825C30.2535 15.706 30.2535 16.3707 30.2535 17.7002C30.2535 19.0296 30.2535 19.6944 30.0366 20.2179C29.8933 20.5643 29.683 20.879 29.4179 21.1441C29.1529 21.4091 28.8381 21.6194 28.4918 21.7628C27.9683 21.9796 27.3035 21.9796 25.9741 21.9796H6.00352C4.67406 21.9796 4.00932 21.9796 3.48581 21.7628C3.13943 21.6194 2.82471 21.4091 2.55964 21.1441C2.29456 20.879 2.08432 20.5643 1.94094 20.2179C1.72412 19.6944 1.72412 19.0296 1.72412 17.7002Z" stroke="white" stroke-width="2.1397"/>
<path d="M25.2607 13.4209V11.2812C25.2607 8.59087 25.2607 7.24714 24.4248 6.41123C23.5889 5.57532 22.2452 5.57532 19.5549 5.57532H12.4225C9.73223 5.57532 8.38849 5.57532 7.55258 6.41123C6.71667 7.24714 6.71667 8.59087 6.71667 11.2812V13.4209M15.9887 6.28855V13.4209" stroke="white" stroke-width="2.1397"/>
</svg>
