<svg width="30" height="30" viewBox="0 0 30 30" fill="none" xmlns="http://www.w3.org/2000/svg">
<path d="M2.64526 16.6491C2.64526 16.5436 2.64526 16.4902 2.648 16.4464C2.66958 16.1146 2.81111 15.8021 3.04621 15.567C3.2813 15.3319 3.59389 15.1903 3.92566 15.1688C3.97085 15.166 4.02152 15.166 4.12833 15.166H25.8115C25.917 15.166 25.969 15.166 26.0142 15.1688C26.346 15.1903 26.6586 15.3319 26.8937 15.567C27.1288 15.8021 27.2703 16.1146 27.2919 16.4464C27.2946 16.4902 27.2946 16.5423 27.2946 16.6491C27.2946 17.19 27.2946 17.4611 27.2754 17.7652C26.9892 22.2664 23.1631 26.2404 18.6756 26.6937C18.3729 26.7252 18.1963 26.732 17.843 26.7457C16.8857 26.7835 15.9279 26.8036 14.9699 26.806C14.0798 26.806 13.1021 26.7827 12.0969 26.7457C11.7436 26.732 11.567 26.7252 11.2657 26.6951C6.77677 26.2404 2.95064 22.2664 2.6658 17.7652C2.64526 17.4611 2.64526 17.19 2.64526 16.6491Z" stroke="white" stroke-width="2.05411"/>
<path d="M6.75443 26.1213L5.38502 28.8601M23.1873 26.1213L24.5567 28.8601M1.27679 15.166H28.665" stroke="white" stroke-width="2.05411" stroke-linecap="round"/>
<path d="M1.61993 16.535C1.61993 16.8074 1.72814 17.0686 1.92075 17.2612C2.11336 17.4539 2.3746 17.5621 2.64699 17.5621C2.91938 17.5621 3.18062 17.4539 3.37323 17.2612C3.56584 17.0686 3.67405 16.8074 3.67405 16.535H1.61993ZM7.22903 10.7041L6.27318 11.0807C6.32374 11.2085 6.39945 11.3248 6.49581 11.4229C6.59217 11.5209 6.70723 11.5986 6.83417 11.6513C6.9611 11.7041 7.09733 11.7308 7.23479 11.7299C7.37224 11.729 7.50812 11.7006 7.63438 11.6462L7.22903 10.7041ZM15.3907 7.18879L15.7974 8.13369C16.0425 8.02811 16.2369 7.83128 16.3394 7.58487C16.4419 7.33847 16.4445 7.06184 16.3466 6.81358L15.3907 7.18879ZM3.67405 16.535V4.73755H1.61993V16.535H3.67405ZM5.91303 2.49857C6.82916 2.49857 7.65218 3.05592 7.99179 3.90632L9.89938 3.14219C9.58085 2.34564 9.03099 1.66415 8.3207 1.18305C7.61041 0.701963 6.77228 0.444704 5.9144 0.444458L5.91303 2.49857ZM3.67405 4.73755C3.67405 3.50098 4.67645 2.49857 5.91303 2.49857L5.9144 0.444458C4.7758 0.444458 3.68246 0.896765 2.87735 1.70188C2.07224 2.50699 1.61993 3.59895 1.61993 4.73755H3.67405ZM7.99179 3.90632L8.51217 5.20452L10.4184 4.44176L9.89938 3.14219L7.99179 3.90632ZM8.18351 10.3275C7.83903 9.44953 7.8459 8.47264 8.20268 7.59962L6.2992 6.8259C5.74359 8.18792 5.73515 9.71159 6.27318 11.0807L8.18351 10.3275ZM14.9854 6.24664L6.82232 9.76054L7.63438 11.6462L15.7961 8.13232L14.9854 6.24664ZM12.619 5.67286C13.4708 6.03712 14.1048 6.72593 14.4362 7.56538L16.3466 6.81358C16.0853 6.14014 15.6927 5.52409 15.1914 5.00402C14.6901 4.48395 14.0903 4.0689 13.427 3.78308L12.619 5.67286ZM8.20268 7.59962C8.52389 6.79086 9.13387 6.13149 9.91444 5.74681L9.01611 3.90084C7.77997 4.50642 6.81204 5.5485 6.2992 6.8259L8.20268 7.59962ZM9.91444 5.74681C10.3333 5.54008 10.7919 5.42654 11.2588 5.41401C11.7257 5.40149 12.1897 5.48889 12.619 5.67286L13.427 3.78308C12.7267 3.48368 11.9701 3.34044 11.2088 3.36053C10.4475 3.38062 9.69957 3.56493 9.01611 3.90084L9.91444 5.74681Z" fill="white"/>
</svg>
