<svg width="24" height="23" viewBox="0 0 24 23" fill="none" xmlns="http://www.w3.org/2000/svg">
<path d="M12.071 1.48721C11.9007 1.41896 11.7106 1.41896 11.5403 1.48721L3.02718 4.89219L11.8057 8.40272L20.5841 4.89219L12.071 1.48721ZM21.7909 5.94635L12.5189 9.65516V20.9556L21.7909 17.2468V5.94635ZM11.0924 20.9571V9.65374L1.82039 5.94635V17.2482L11.0924 20.9571ZM11.0111 0.162023C11.5212 -0.0419633 12.0901 -0.0419633 12.6002 0.162023L22.7695 4.23031C22.9017 4.28329 23.015 4.37465 23.0949 4.49262C23.1747 4.61058 23.2174 4.74975 23.2174 4.89219V17.2482C23.2172 17.5333 23.1316 17.8117 22.9717 18.0477C22.8118 18.2836 22.5848 18.4663 22.3201 18.572L12.071 22.6717C11.9007 22.7399 11.7106 22.7399 11.5403 22.6717L1.2926 18.572C1.02763 18.4665 0.800382 18.284 0.640189 18.048C0.479996 17.812 0.394215 17.5335 0.393921 17.2482V4.89219C0.393954 4.74975 0.436635 4.61058 0.516464 4.49262C0.596294 4.37465 0.709616 4.28329 0.841832 4.23031L11.0111 0.162023Z" fill="white"/>
</svg>
