<svg width="7" height="10" viewBox="0 0 7 10" fill="none" xmlns="http://www.w3.org/2000/svg">
<path d="M3.35509 5.63442C3.09842 5.63442 2.84751 5.53933 2.6341 5.36118C2.42069 5.18302 2.25435 4.92981 2.15613 4.63355C2.0579 4.3373 2.03221 4.0113 2.08228 3.6968C2.13235 3.38229 2.25595 3.0934 2.43744 2.86666C2.61894 2.63991 2.85018 2.4855 3.10191 2.42294C3.35365 2.36038 3.61459 2.39249 3.85172 2.5152C4.08885 2.63791 4.29153 2.84572 4.43413 3.11235C4.57673 3.37897 4.65284 3.69244 4.65284 4.0131C4.65243 4.44294 4.51557 4.85503 4.27228 5.15898C4.029 5.46292 3.69915 5.6339 3.35509 5.63442ZM3.35509 3.04031C3.20109 3.04031 3.05055 3.09737 2.9225 3.20426C2.79445 3.31115 2.69465 3.46308 2.63571 3.64083C2.57678 3.81858 2.56136 4.01418 2.5914 4.20288C2.62145 4.39159 2.69561 4.56492 2.8045 4.70097C2.9134 4.83701 3.05214 4.92966 3.20318 4.9672C3.35423 5.00473 3.51079 4.98547 3.65307 4.91184C3.79535 4.83821 3.91696 4.71353 4.00252 4.55355C4.08807 4.39358 4.13374 4.2055 4.13374 4.0131C4.13353 3.75518 4.05143 3.5079 3.90545 3.32552C3.75947 3.14314 3.56154 3.04057 3.35509 3.04031Z" fill="#A3A3A3"/>
<path d="M3.35505 9.52554L1.16549 6.29944C1.13506 6.251 1.10496 6.20225 1.07517 6.1532C0.701149 5.53768 0.499096 4.78585 0.500003 4.01306C0.500003 3.06706 0.800802 2.15981 1.33623 1.49089C1.87165 0.821964 2.59784 0.446167 3.35505 0.446167C4.11226 0.446167 4.83845 0.821964 5.37387 1.49089C5.9093 2.15981 6.2101 3.06706 6.2101 4.01306C6.211 4.7855 6.00904 5.53698 5.63519 6.15223L5.63493 6.1532C5.63493 6.1532 5.55707 6.28096 5.54539 6.29814L3.35505 9.52554ZM1.48967 5.76246C1.48967 5.76246 1.55014 5.86233 1.5639 5.88374L3.35505 8.52291L5.14854 5.88017C5.15996 5.86233 5.22069 5.76181 5.22095 5.76149C5.52648 5.25859 5.6916 4.64441 5.691 4.01306C5.691 3.23906 5.44489 2.49676 5.00681 1.94946C4.56874 1.40216 3.97458 1.09469 3.35505 1.09469C2.73552 1.09469 2.14136 1.40216 1.70329 1.94946C1.26521 2.49676 1.0191 3.23906 1.0191 4.01306C1.01856 4.6448 1.18386 5.25934 1.48967 5.76246Z" fill="#A3A3A3"/>
</svg>
