<svg width="25" height="25" viewBox="0 0 25 25" fill="none" xmlns="http://www.w3.org/2000/svg">
<path d="M19.175 4.32524C18.8783 4.32524 18.5883 4.41322 18.3416 4.57804C18.095 4.74286 17.9027 4.97713 17.7892 5.25122C17.6756 5.52531 17.6459 5.82691 17.7038 6.11788C17.7617 6.40885 17.9046 6.67613 18.1143 6.8859C18.3241 7.09568 18.5914 7.23854 18.8824 7.29642C19.1733 7.3543 19.4749 7.32459 19.749 7.21106C20.0231 7.09753 20.2574 6.90527 20.4222 6.6586C20.587 6.41193 20.675 6.12192 20.675 5.82524C20.675 5.42742 20.517 5.04589 20.2357 4.76458C19.9544 4.48328 19.5728 4.32524 19.175 4.32524ZM24.925 7.35024C24.9007 6.31312 24.7064 5.287 24.35 4.31274C24.0322 3.47916 23.5375 2.72434 22.9 2.10024C22.281 1.45953 21.5245 0.967965 20.6875 0.662744C19.7158 0.295445 18.6886 0.0967566 17.65 0.0752441C16.325 0.000244071 15.9 0.000244141 12.5 0.000244141C9.1 0.000244141 8.675 0.000244071 7.35 0.0752441C6.31144 0.0967566 5.28418 0.295445 4.3125 0.662744C3.4771 0.971055 2.72117 1.46219 2.1 2.10024C1.45928 2.71922 0.967721 3.47579 0.6625 4.31274C0.295201 5.28442 0.0965125 6.31168 0.0749999 7.35024C-6.98492e-08 8.67524 0 9.10024 0 12.5002C0 15.9002 -6.98492e-08 16.3252 0.0749999 17.6502C0.0965125 18.6888 0.295201 19.7161 0.6625 20.6877C0.967721 21.5247 1.45928 22.2813 2.1 22.9002C2.72117 23.5383 3.4771 24.0294 4.3125 24.3377C5.28418 24.705 6.31144 24.9037 7.35 24.9252C8.675 25.0002 9.1 25.0002 12.5 25.0002C15.9 25.0002 16.325 25.0002 17.65 24.9252C18.6886 24.9037 19.7158 24.705 20.6875 24.3377C21.5245 24.0325 22.281 23.541 22.9 22.9002C23.5403 22.2785 24.0354 21.523 24.35 20.6877C24.7064 19.7135 24.9007 18.6874 24.925 17.6502C24.925 16.3252 25 15.9002 25 12.5002C25 9.10024 25 8.67524 24.925 7.35024ZM22.675 17.5002C22.6659 18.2937 22.5222 19.0799 22.25 19.8252C22.0504 20.3692 21.7298 20.8608 21.3125 21.2627C20.9071 21.6759 20.4165 21.9958 19.875 22.2002C19.1296 22.4724 18.3435 22.6161 17.55 22.6252C16.3 22.6877 15.8375 22.7002 12.55 22.7002C9.2625 22.7002 8.8 22.7002 7.55 22.6252C6.72611 22.6407 5.90574 22.5138 5.125 22.2502C4.60723 22.0353 4.13919 21.7162 3.75 21.3127C3.33511 20.9112 3.01855 20.4192 2.825 19.8752C2.51982 19.1192 2.35055 18.3152 2.325 17.5002C2.325 16.2502 2.25 15.7877 2.25 12.5002C2.25 9.21274 2.25 8.75024 2.325 7.50024C2.3306 6.68906 2.47869 5.88518 2.7625 5.12524C2.98256 4.59763 3.32033 4.12732 3.75 3.75024C4.12977 3.32045 4.59911 2.97911 5.125 2.75024C5.88694 2.4753 6.69 2.33159 7.5 2.32524C8.75 2.32524 9.2125 2.25024 12.5 2.25024C15.7875 2.25024 16.25 2.25024 17.5 2.32524C18.2935 2.33434 19.0796 2.47805 19.825 2.75024C20.393 2.96106 20.9029 3.3038 21.3125 3.75024C21.7221 4.13422 22.0422 4.60366 22.25 5.12524C22.5278 5.88641 22.6716 6.68997 22.675 7.50024C22.7375 8.75024 22.75 9.21274 22.75 12.5002C22.75 15.7877 22.7375 16.2502 22.675 17.5002ZM12.5 6.08774C11.2323 6.09022 9.9937 6.4684 8.94082 7.17452C7.88793 7.88063 7.06797 8.88299 6.58454 10.0549C6.10111 11.2269 5.9759 12.5158 6.22474 13.7589C6.47358 15.002 7.0853 16.1434 7.98259 17.039C8.8799 17.9345 10.0225 18.544 11.2661 18.7904C12.5096 19.0368 13.7983 18.9091 14.9693 18.4234C16.1403 17.9377 17.1411 17.1158 17.8452 16.0615C18.5492 15.0073 18.925 13.768 18.925 12.5002C18.9267 11.6566 18.7615 10.821 18.439 10.0414C18.1166 9.26188 17.6432 8.55376 17.0461 7.95781C16.449 7.36186 15.7399 6.88984 14.9597 6.56891C14.1796 6.24797 13.3436 6.08445 12.5 6.08774ZM12.5 16.6627C11.6767 16.6627 10.872 16.4186 10.1874 15.9612C9.50292 15.5039 8.9694 14.8538 8.65435 14.0932C8.3393 13.3326 8.25687 12.4956 8.41748 11.6882C8.57809 10.8807 8.97453 10.139 9.55667 9.55691C10.1388 8.97478 10.8805 8.57834 11.6879 8.41773C12.4954 8.25711 13.3323 8.33955 14.0929 8.6546C14.8535 8.96965 15.5036 9.50316 15.961 10.1877C16.4184 10.8722 16.6625 11.677 16.6625 12.5002C16.6625 13.0469 16.5548 13.5881 16.3456 14.0932C16.1365 14.5982 15.8299 15.0571 15.4433 15.4436C15.0568 15.8301 14.5979 16.1367 14.0929 16.3459C13.5879 16.5551 13.0466 16.6627 12.5 16.6627Z" fill="white"/>
</svg>
