<svg width="101" height="43" viewBox="0 0 101 43" fill="none" xmlns="http://www.w3.org/2000/svg">
<circle cx="21.1652" cy="21.1652" r="21.1652" fill="#F76326"/>
<path d="M54.424 6.51109C54.3769 6.07067 54.1786 5.72774 53.8289 5.48232C53.4826 5.23689 53.0321 5.11417 52.4774 5.11417C52.0874 5.11417 51.7529 5.17301 51.4738 5.29068C51.1948 5.40835 50.9813 5.56805 50.8334 5.76977C50.6854 5.97149 50.6098 6.20179 50.6064 6.46066C50.6064 6.67583 50.6552 6.86243 50.7527 7.02044C50.8535 7.17846 50.9897 7.31294 51.1612 7.42388C51.3326 7.53147 51.5226 7.62224 51.731 7.69621C51.9395 7.77017 52.1496 7.83237 52.3614 7.8828L53.3297 8.12487C53.7197 8.21564 54.0945 8.33835 54.4543 8.49301C54.8174 8.64766 55.1418 8.84266 55.4276 9.078C55.7167 9.31334 55.9453 9.59743 56.1134 9.93027C56.2815 10.2631 56.3656 10.6531 56.3656 11.1003C56.3656 11.7054 56.2109 12.2383 55.9016 12.6989C55.5923 13.1561 55.1452 13.5142 54.5602 13.7731C53.9785 14.0286 53.2742 14.1563 52.4471 14.1563C51.6436 14.1563 50.946 14.0319 50.3543 13.7831C49.7659 13.5344 49.3053 13.1713 48.9725 12.6939C48.643 12.2164 48.4648 11.6348 48.4379 10.949H50.2786C50.3055 11.3087 50.4165 11.6079 50.6115 11.8466C50.8065 12.0853 51.0603 12.2635 51.373 12.3812C51.689 12.4989 52.042 12.5577 52.432 12.5577C52.8388 12.5577 53.1952 12.4972 53.5011 12.3761C53.8104 12.2517 54.0525 12.0803 54.2273 11.8618C54.4022 11.6399 54.4912 11.381 54.4946 11.0851C54.4912 10.8162 54.4122 10.5943 54.2576 10.4194C54.1029 10.2413 53.8861 10.0933 53.607 9.97566C53.3314 9.85463 53.0086 9.74704 52.6388 9.6529L51.4637 9.35032C50.6132 9.13179 49.9408 8.80063 49.4465 8.35685C48.9557 7.9097 48.7103 7.3163 48.7103 6.57665C48.7103 5.96813 48.875 5.43525 49.2045 4.97801C49.5373 4.52078 49.9895 4.16608 50.561 3.91393C51.1326 3.65842 51.7798 3.53066 52.5026 3.53066C53.2355 3.53066 53.8777 3.65842 54.4291 3.91393C54.9838 4.16608 55.4192 4.51742 55.7352 4.96793C56.0512 5.41507 56.2143 5.92946 56.2244 6.51109H54.424ZM61.3821 14.1513C60.6055 14.1513 59.9348 13.9899 59.37 13.6672C58.8085 13.341 58.3765 12.8804 58.0739 12.2854C57.7713 11.6869 57.62 10.9826 57.62 10.1723C57.62 9.37554 57.7713 8.67624 58.0739 8.07444C58.3798 7.46927 58.8068 6.99859 59.3548 6.66239C59.9028 6.32282 60.5467 6.15304 61.2863 6.15304C61.7637 6.15304 62.2142 6.23037 62.6379 6.38502C63.0648 6.53631 63.4414 6.77165 63.7675 7.09104C64.097 7.41044 64.3558 7.81724 64.5441 8.31146C64.7324 8.80231 64.8265 9.3873 64.8265 10.0664V10.6262H58.4773V9.39571H63.0766C63.0732 9.04606 62.9976 8.73507 62.8497 8.46275C62.7017 8.18706 62.495 7.97021 62.2294 7.8122C61.9671 7.65418 61.6612 7.57517 61.3115 7.57517C60.9383 7.57517 60.6106 7.66595 60.3281 7.8475C60.0457 8.02569 59.8255 8.26103 59.6675 8.55352C59.5129 8.84266 59.4338 9.16037 59.4305 9.50666V10.5808C59.4305 11.0313 59.5129 11.418 59.6776 11.7407C59.8423 12.0601 60.0726 12.3055 60.3685 12.477C60.6643 12.6451 61.0106 12.7292 61.4074 12.7292C61.673 12.7292 61.9133 12.6922 62.1285 12.6182C62.3437 12.5409 62.5303 12.4283 62.6883 12.2803C62.8463 12.1324 62.9656 11.9492 63.0463 11.7306L64.7509 11.9223C64.6433 12.3728 64.4382 12.7661 64.1356 13.1023C63.8364 13.4352 63.4531 13.6941 62.9858 13.879C62.5185 14.0605 61.9839 14.1513 61.3821 14.1513ZM69.7498 14.1513C68.9765 14.1513 68.3125 13.9815 67.7578 13.6419C67.2064 13.3024 66.7811 12.8334 66.4819 12.2349C66.186 11.6331 66.0381 10.9406 66.0381 10.1572C66.0381 9.37049 66.1894 8.67624 66.492 8.07444C66.7946 7.46927 67.2215 6.99859 67.7729 6.66239C68.3277 6.32282 68.9832 6.15304 69.7397 6.15304C70.3684 6.15304 70.9248 6.26903 71.4089 6.50101C71.8964 6.72963 72.2848 7.05406 72.5739 7.47431C72.863 7.8912 73.0278 8.3787 73.0681 8.93679H71.3232C71.2526 8.56361 71.0845 8.25262 70.8189 8.00383C70.5567 7.75168 70.2053 7.6256 69.7649 7.6256C69.3917 7.6256 69.0639 7.72647 68.7815 7.92819C68.4991 8.12655 68.2789 8.41232 68.1209 8.7855C67.9662 9.15869 67.8889 9.60584 67.8889 10.1269C67.8889 10.6548 67.9662 11.1087 68.1209 11.4886C68.2755 11.8651 68.4924 12.1559 68.7714 12.361C69.0539 12.5627 69.385 12.6636 69.7649 12.6636C70.0339 12.6636 70.2743 12.6132 70.4861 12.5123C70.7012 12.4081 70.8811 12.2585 71.0257 12.0635C71.1702 11.8685 71.2694 11.6315 71.3232 11.3524H73.0681C73.0244 11.9004 72.863 12.3862 72.584 12.8098C72.3049 13.2301 71.925 13.5596 71.4442 13.7983C70.9635 14.0336 70.3987 14.1513 69.7498 14.1513ZM77.946 14.1513C77.1895 14.1513 76.5339 13.9849 75.9792 13.652C75.4245 13.3192 74.9941 12.8536 74.6882 12.2551C74.3856 11.6567 74.2343 10.9574 74.2343 10.1572C74.2343 9.35705 74.3856 8.65606 74.6882 8.05426C74.9941 7.45246 75.4245 6.98514 75.9792 6.6523C76.5339 6.31946 77.1895 6.15304 77.946 6.15304C78.7024 6.15304 79.358 6.31946 79.9128 6.6523C80.4675 6.98514 80.8962 7.45246 81.1987 8.05426C81.5047 8.65606 81.6577 9.35705 81.6577 10.1572C81.6577 10.9574 81.5047 11.6567 81.1987 12.2551C80.8962 12.8536 80.4675 13.3192 79.9128 13.652C79.358 13.9849 78.7024 14.1513 77.946 14.1513ZM77.9561 12.6888C78.3662 12.6888 78.7092 12.5762 78.9848 12.3509C79.2605 12.1223 79.4656 11.8164 79.6001 11.4331C79.7379 11.0498 79.8069 10.6228 79.8069 10.1522C79.8069 9.67812 79.7379 9.24946 79.6001 8.86619C79.4656 8.47956 79.2605 8.17193 78.9848 7.94332C78.7092 7.7147 78.3662 7.60039 77.9561 7.60039C77.5358 7.60039 77.1862 7.7147 76.9071 7.94332C76.6314 8.17193 76.4247 8.47956 76.2868 8.86619C76.1523 9.24946 76.0851 9.67812 76.0851 10.1522C76.0851 10.6228 76.1523 11.0498 76.2868 11.4331C76.4247 11.8164 76.6314 12.1223 76.9071 12.3509C77.1862 12.5762 77.5358 12.6888 77.9561 12.6888ZM85.0327 9.46127V14H83.2071V6.2539H84.952V7.57013H85.0428C85.221 7.13643 85.5051 6.79182 85.8951 6.53631C86.2884 6.2808 86.7742 6.15304 87.3525 6.15304C87.8871 6.15304 88.3527 6.26735 88.7494 6.49597C89.1495 6.72458 89.4588 7.05574 89.6773 7.48944C89.8992 7.92314 90.0085 8.4493 90.0051 9.06791V14H88.1796V9.35032C88.1796 8.83257 88.0451 8.42745 87.7761 8.13495C87.5105 7.84246 87.1424 7.69621 86.6717 7.69621C86.3523 7.69621 86.0682 7.76681 85.8194 7.90801C85.574 8.04586 85.3807 8.2459 85.2395 8.50814C85.1016 8.77037 85.0327 9.08808 85.0327 9.46127ZM94.7355 14.1362C94.127 14.1362 93.5823 13.9798 93.1016 13.6672C92.6208 13.3545 92.2409 12.9006 91.9618 12.3055C91.6828 11.7105 91.5433 10.9876 91.5433 10.137C91.5433 9.27636 91.6845 8.55016 91.9669 7.95845C92.2526 7.36337 92.6376 6.91454 93.1217 6.61196C93.6059 6.30601 94.1455 6.15304 94.7405 6.15304C95.1944 6.15304 95.5676 6.23037 95.8601 6.38502C96.1526 6.53631 96.3846 6.71954 96.556 6.93471C96.7275 7.14652 96.8603 7.34656 96.9544 7.53483H97.0301V3.67187H98.8607V14H97.0654V12.7796H96.9544C96.8603 12.9679 96.7241 13.1679 96.5459 13.3797C96.3678 13.5882 96.1324 13.7663 95.8399 13.9143C95.5474 14.0622 95.1793 14.1362 94.7355 14.1362ZM95.2448 12.6384C95.6315 12.6384 95.961 12.5342 96.2333 12.3257C96.5056 12.1139 96.7124 11.8197 96.8536 11.4432C96.9948 11.0666 97.0654 10.6279 97.0654 10.1269C97.0654 9.62601 96.9948 9.19063 96.8536 8.8208C96.7157 8.45098 96.5106 8.16353 96.2383 7.95845C95.9694 7.75336 95.6382 7.65082 95.2448 7.65082C94.838 7.65082 94.4985 7.75672 94.2262 7.96853C93.9538 8.18034 93.7487 8.47283 93.6109 8.84602C93.4731 9.2192 93.4041 9.64618 93.4041 10.1269C93.4041 10.6111 93.4731 11.0431 93.6109 11.423C93.7521 11.7996 93.9589 12.0971 94.2312 12.3156C94.5069 12.5308 94.8448 12.6384 95.2448 12.6384ZM49.1246 36V22.494H57.7769V24.5449H51.5712V28.2116H57.1833V30.2626H51.5712V36H49.1246ZM62.2877 22.494V36H59.9004V22.494H62.2877ZM69.161 36.1978C68.1718 36.1978 67.3145 35.9802 66.5891 35.545C65.8636 35.1097 65.3009 34.5008 64.9008 33.7182C64.5051 32.9356 64.3073 32.0212 64.3073 30.9748C64.3073 29.9284 64.5051 29.0118 64.9008 28.2248C65.3009 27.4378 65.8636 26.8267 66.5891 26.3915C67.3145 25.9562 68.1718 25.7386 69.161 25.7386C70.1502 25.7386 71.0075 25.9562 71.733 26.3915C72.4584 26.8267 73.0189 27.4378 73.4146 28.2248C73.8147 29.0118 74.0147 29.9284 74.0147 30.9748C74.0147 32.0212 73.8147 32.9356 73.4146 33.7182C73.0189 34.5008 72.4584 35.1097 71.733 35.545C71.0075 35.9802 70.1502 36.1978 69.161 36.1978ZM69.1742 34.2854C69.7106 34.2854 70.159 34.1381 70.5195 33.8435C70.88 33.5446 71.1482 33.1445 71.3241 32.6433C71.5043 32.1421 71.5945 31.5837 71.5945 30.9682C71.5945 30.3483 71.5043 29.7878 71.3241 29.2866C71.1482 28.781 70.88 28.3787 70.5195 28.0797C70.159 27.7808 69.7106 27.6313 69.1742 27.6313C68.6246 27.6313 68.1674 27.7808 67.8025 28.0797C67.442 28.3787 67.1716 28.781 66.9913 29.2866C66.8155 29.7878 66.7276 30.3483 66.7276 30.9682C66.7276 31.5837 66.8155 32.1421 66.9913 32.6433C67.1716 33.1445 67.442 33.5446 67.8025 33.8435C68.1674 34.1381 68.6246 34.2854 69.1742 34.2854ZM80.4594 36.1978C79.4702 36.1978 78.6129 35.9802 77.8875 35.545C77.1621 35.1097 76.5993 34.5008 76.1992 33.7182C75.8036 32.9356 75.6057 32.0212 75.6057 30.9748C75.6057 29.9284 75.8036 29.0118 76.1992 28.2248C76.5993 27.4378 77.1621 26.8267 77.8875 26.3915C78.6129 25.9562 79.4702 25.7386 80.4594 25.7386C81.4487 25.7386 82.306 25.9562 83.0314 26.3915C83.7568 26.8267 84.3174 27.4378 84.7131 28.2248C85.1131 29.0118 85.3132 29.9284 85.3132 30.9748C85.3132 32.0212 85.1131 32.9356 84.7131 33.7182C84.3174 34.5008 83.7568 35.1097 83.0314 35.545C82.306 35.9802 81.4487 36.1978 80.4594 36.1978ZM80.4726 34.2854C81.009 34.2854 81.4575 34.1381 81.818 33.8435C82.1785 33.5446 82.4467 33.1445 82.6225 32.6433C82.8028 32.1421 82.8929 31.5837 82.8929 30.9682C82.8929 30.3483 82.8028 29.7878 82.6225 29.2866C82.4467 28.781 82.1785 28.3787 81.818 28.0797C81.4575 27.7808 81.009 27.6313 80.4726 27.6313C79.9231 27.6313 79.4658 27.7808 79.1009 28.0797C78.7404 28.3787 78.47 28.781 78.2898 29.2866C78.1139 29.7878 78.026 30.3483 78.026 30.9682C78.026 31.5837 78.1139 32.1421 78.2898 32.6433C78.47 33.1445 78.7404 33.5446 79.1009 33.8435C79.4658 34.1381 79.9231 34.2854 80.4726 34.2854ZM87.3394 36V25.8705H89.6542V27.5587H89.7597C89.9443 26.974 90.2609 26.5234 90.7093 26.2068C91.1622 25.8859 91.6787 25.7254 92.2591 25.7254C92.391 25.7254 92.5383 25.732 92.7009 25.7452C92.868 25.754 93.0065 25.7694 93.1164 25.7913V27.9874C93.0153 27.9522 92.8548 27.9214 92.635 27.8951C92.4196 27.8643 92.2107 27.8489 92.0085 27.8489C91.5732 27.8489 91.1819 27.9434 90.8346 28.1325C90.4917 28.3171 90.2213 28.5743 90.0235 28.9041C89.8256 29.2338 89.7267 29.6141 89.7267 30.045V36H87.3394Z" fill="#A3A3A3"/>
</svg>
