<svg width="28" height="28" viewBox="0 0 28 28" fill="none" xmlns="http://www.w3.org/2000/svg">
<path d="M23.8062 4.06899C21.1875 1.44399 17.7 0.000244141 13.9937 0.000244141C6.34375 0.000244141 0.11875 6.22524 0.11875 13.8752C0.11875 16.319 0.75625 18.7065 1.96875 20.8127L0 28.0002L7.35625 26.069C9.38125 27.1752 11.6625 27.7565 13.9875 27.7565H13.9937C21.6375 27.7565 28 21.5315 28 13.8815C28 10.1752 26.425 6.69399 23.8062 4.06899ZM13.9937 25.419C11.9187 25.419 9.8875 24.8627 8.11875 23.8127L7.7 23.5627L3.3375 24.7065L4.5 20.4502L4.225 20.0127C3.06875 18.1752 2.4625 16.0565 2.4625 13.8752C2.4625 7.51899 7.6375 2.34399 14 2.34399C17.0812 2.34399 19.975 3.54399 22.15 5.72524C24.325 7.90649 25.6625 10.8002 25.6562 13.8815C25.6562 20.244 20.35 25.419 13.9937 25.419ZM20.3188 16.7815C19.975 16.6065 18.2688 15.769 17.95 15.6565C17.6313 15.5377 17.4 15.4815 17.1688 15.8315C16.9375 16.1815 16.275 16.9565 16.0688 17.194C15.8688 17.4252 15.6625 17.4565 15.3188 17.2815C13.2812 16.2627 11.9438 15.4627 10.6 13.1565C10.2438 12.544 10.9562 12.5877 11.6187 11.2627C11.7312 11.0315 11.675 10.8315 11.5875 10.6565C11.5 10.4815 10.8063 8.77524 10.5188 8.08149C10.2375 7.40649 9.95 7.50024 9.7375 7.48774C9.5375 7.47524 9.30625 7.47524 9.075 7.47524C8.84375 7.47524 8.46875 7.56274 8.15 7.90649C7.83125 8.25649 6.9375 9.09399 6.9375 10.8002C6.9375 12.5065 8.18125 14.1565 8.35 14.3877C8.525 14.619 10.7937 18.119 14.275 19.6252C16.475 20.5752 17.3375 20.6565 18.4375 20.494C19.1063 20.394 20.4875 19.6565 20.775 18.844C21.0625 18.0315 21.0625 17.3377 20.975 17.194C20.8938 17.0377 20.6625 16.9502 20.3188 16.7815Z" fill="white"/>
</svg>
